<mxfile host="app.diagrams.net" modified="2023-09-11T12:59:04.766Z" agent="Mozilla/5.0 (Windows NT 10.0; Win64; x64) AppleWebKit/537.36 (KHTML, like Gecko) Chrome/116.0.0.0 Safari/537.36" etag="8AaXG0YP15s82TBxamnJ" version="21.7.4" type="device">
  <diagram name="Page-1" id="jVkGft2RI7STJsTkmTgW">
    <mxGraphModel dx="1050" dy="1666" grid="1" gridSize="10" guides="1" tooltips="1" connect="1" arrows="1" fold="1" page="1" pageScale="1" pageWidth="850" pageHeight="1100" math="0" shadow="0">
      <root>
        <mxCell id="0" />
        <mxCell id="1" parent="0" />
        <mxCell id="OoetETpxCkzC8k2bZlOq-1" value="" style="shape=mxgraph.pid.vessels.tank_(dished_roof);html=1;pointerEvents=1;align=center;verticalLabelPosition=bottom;verticalAlign=top;dashed=0;" vertex="1" parent="1">
          <mxGeometry x="110" y="-723.75" width="100" height="95" as="geometry" />
        </mxCell>
        <mxCell id="OoetETpxCkzC8k2bZlOq-2" value="H2" style="text;html=1;align=center;verticalAlign=middle;resizable=0;points=[];autosize=1;strokeColor=none;fillColor=none;" vertex="1" parent="1">
          <mxGeometry x="140" y="-673.75" width="40" height="30" as="geometry" />
        </mxCell>
        <mxCell id="OoetETpxCkzC8k2bZlOq-3" value="" style="endArrow=none;html=1;rounded=0;" edge="1" parent="1">
          <mxGeometry width="50" height="50" relative="1" as="geometry">
            <mxPoint x="210" y="-683.75" as="sourcePoint" />
            <mxPoint x="280" y="-683.75" as="targetPoint" />
          </mxGeometry>
        </mxCell>
        <mxCell id="OoetETpxCkzC8k2bZlOq-4" value="" style="shape=mxgraph.pid.pumps.centrifugal_pump_1;html=1;pointerEvents=1;align=center;verticalLabelPosition=bottom;verticalAlign=top;dashed=0;" vertex="1" parent="1">
          <mxGeometry x="280" y="-710.75" width="70" height="67" as="geometry" />
        </mxCell>
        <mxCell id="OoetETpxCkzC8k2bZlOq-5" value="" style="endArrow=none;html=1;rounded=0;" edge="1" parent="1">
          <mxGeometry width="50" height="50" relative="1" as="geometry">
            <mxPoint x="350" y="-703.75" as="sourcePoint" />
            <mxPoint x="410" y="-703.75" as="targetPoint" />
          </mxGeometry>
        </mxCell>
        <mxCell id="OoetETpxCkzC8k2bZlOq-6" value="" style="verticalLabelPosition=bottom;align=center;html=1;verticalAlign=top;pointerEvents=1;dashed=0;shape=mxgraph.pid2valves.valve;valveType=gate;actuator=diaph" vertex="1" parent="1">
          <mxGeometry x="410" y="-733.75" width="40" height="50" as="geometry" />
        </mxCell>
        <mxCell id="OoetETpxCkzC8k2bZlOq-7" value="" style="shape=mxgraph.pid.heat_exchangers.shell_and_tube_heat_exchanger_1;html=1;pointerEvents=1;align=center;verticalLabelPosition=bottom;verticalAlign=top;dashed=0;rotation=90;" vertex="1" parent="1">
          <mxGeometry x="780" y="-723.75" width="60" height="40" as="geometry" />
        </mxCell>
        <mxCell id="OoetETpxCkzC8k2bZlOq-8" value="" style="endArrow=none;html=1;rounded=0;" edge="1" parent="1">
          <mxGeometry width="50" height="50" relative="1" as="geometry">
            <mxPoint x="450" y="-703.75" as="sourcePoint" />
            <mxPoint x="500" y="-703.75" as="targetPoint" />
            <Array as="points">
              <mxPoint x="460" y="-703.75" />
            </Array>
          </mxGeometry>
        </mxCell>
        <mxCell id="OoetETpxCkzC8k2bZlOq-9" value="" style="endArrow=none;html=1;rounded=0;" edge="1" parent="1">
          <mxGeometry width="50" height="50" relative="1" as="geometry">
            <mxPoint x="550" y="-704.37" as="sourcePoint" />
            <mxPoint x="600" y="-704.37" as="targetPoint" />
            <Array as="points">
              <mxPoint x="560" y="-704.37" />
            </Array>
          </mxGeometry>
        </mxCell>
        <mxCell id="OoetETpxCkzC8k2bZlOq-10" value="" style="endArrow=none;html=1;rounded=0;" edge="1" parent="1">
          <mxGeometry width="50" height="50" relative="1" as="geometry">
            <mxPoint x="640" y="-704.37" as="sourcePoint" />
            <mxPoint x="690" y="-704.37" as="targetPoint" />
            <Array as="points" />
          </mxGeometry>
        </mxCell>
        <mxCell id="OoetETpxCkzC8k2bZlOq-11" value="" style="endArrow=none;html=1;rounded=0;" edge="1" parent="1">
          <mxGeometry width="50" height="50" relative="1" as="geometry">
            <mxPoint x="740" y="-704.37" as="sourcePoint" />
            <mxPoint x="790" y="-704.37" as="targetPoint" />
            <Array as="points" />
          </mxGeometry>
        </mxCell>
        <mxCell id="OoetETpxCkzC8k2bZlOq-12" value="" style="endArrow=none;html=1;rounded=0;" edge="1" parent="1">
          <mxGeometry width="50" height="50" relative="1" as="geometry">
            <mxPoint x="830" y="-704.37" as="sourcePoint" />
            <mxPoint x="890" y="-704.37" as="targetPoint" />
          </mxGeometry>
        </mxCell>
        <mxCell id="OoetETpxCkzC8k2bZlOq-13" value="" style="edgeStyle=none;orthogonalLoop=1;jettySize=auto;html=1;rounded=0;" edge="1" parent="1">
          <mxGeometry width="100" relative="1" as="geometry">
            <mxPoint x="890" y="-703.75" as="sourcePoint" />
            <mxPoint x="890" y="-783.75" as="targetPoint" />
            <Array as="points" />
          </mxGeometry>
        </mxCell>
        <mxCell id="OoetETpxCkzC8k2bZlOq-14" value="" style="triangle;whiteSpace=wrap;html=1;rotation=-90;" vertex="1" parent="1">
          <mxGeometry x="505" y="-723.75" width="35" height="55" as="geometry" />
        </mxCell>
        <mxCell id="OoetETpxCkzC8k2bZlOq-15" value="" style="ellipse;whiteSpace=wrap;html=1;aspect=fixed;" vertex="1" parent="1">
          <mxGeometry x="495" y="-738.75" width="55" height="55" as="geometry" />
        </mxCell>
        <mxCell id="OoetETpxCkzC8k2bZlOq-16" value="" style="triangle;whiteSpace=wrap;html=1;rotation=-90;" vertex="1" parent="1">
          <mxGeometry x="700" y="-718.75" width="35" height="55" as="geometry" />
        </mxCell>
        <mxCell id="OoetETpxCkzC8k2bZlOq-17" value="" style="ellipse;whiteSpace=wrap;html=1;aspect=fixed;" vertex="1" parent="1">
          <mxGeometry x="690" y="-733.75" width="55" height="55" as="geometry" />
        </mxCell>
        <mxCell id="OoetETpxCkzC8k2bZlOq-18" value="" style="shape=mxgraph.pid.vessels.tank_(dished_roof);html=1;pointerEvents=1;align=center;verticalLabelPosition=bottom;verticalAlign=top;dashed=0;" vertex="1" parent="1">
          <mxGeometry x="110" y="-883.75" width="100" height="95" as="geometry" />
        </mxCell>
        <mxCell id="OoetETpxCkzC8k2bZlOq-19" value="N2" style="text;html=1;align=center;verticalAlign=middle;resizable=0;points=[];autosize=1;strokeColor=none;fillColor=none;" vertex="1" parent="1">
          <mxGeometry x="140" y="-833.75" width="40" height="30" as="geometry" />
        </mxCell>
        <mxCell id="OoetETpxCkzC8k2bZlOq-20" value="" style="endArrow=none;html=1;rounded=0;" edge="1" parent="1">
          <mxGeometry width="50" height="50" relative="1" as="geometry">
            <mxPoint x="210" y="-843.75" as="sourcePoint" />
            <mxPoint x="280" y="-843.75" as="targetPoint" />
          </mxGeometry>
        </mxCell>
        <mxCell id="OoetETpxCkzC8k2bZlOq-21" value="" style="shape=mxgraph.pid.pumps.centrifugal_pump_1;html=1;pointerEvents=1;align=center;verticalLabelPosition=bottom;verticalAlign=top;dashed=0;" vertex="1" parent="1">
          <mxGeometry x="280" y="-870.75" width="70" height="67" as="geometry" />
        </mxCell>
        <mxCell id="OoetETpxCkzC8k2bZlOq-22" value="" style="endArrow=none;html=1;rounded=0;" edge="1" parent="1">
          <mxGeometry width="50" height="50" relative="1" as="geometry">
            <mxPoint x="350" y="-863.75" as="sourcePoint" />
            <mxPoint x="410" y="-863.75" as="targetPoint" />
            <Array as="points">
              <mxPoint x="380" y="-863.75" />
            </Array>
          </mxGeometry>
        </mxCell>
        <mxCell id="OoetETpxCkzC8k2bZlOq-23" value="" style="verticalLabelPosition=bottom;align=center;html=1;verticalAlign=top;pointerEvents=1;dashed=0;shape=mxgraph.pid2valves.valve;valveType=gate;actuator=diaph" vertex="1" parent="1">
          <mxGeometry x="410" y="-893.75" width="40" height="50" as="geometry" />
        </mxCell>
        <mxCell id="OoetETpxCkzC8k2bZlOq-24" value="" style="endArrow=none;html=1;rounded=0;" edge="1" parent="1">
          <mxGeometry width="50" height="50" relative="1" as="geometry">
            <mxPoint x="450" y="-863.75" as="sourcePoint" />
            <mxPoint x="500" y="-863.75" as="targetPoint" />
            <Array as="points">
              <mxPoint x="460" y="-863.75" />
            </Array>
          </mxGeometry>
        </mxCell>
        <mxCell id="OoetETpxCkzC8k2bZlOq-25" value="" style="endArrow=none;html=1;rounded=0;" edge="1" parent="1">
          <mxGeometry width="50" height="50" relative="1" as="geometry">
            <mxPoint x="550" y="-864.37" as="sourcePoint" />
            <mxPoint x="600" y="-864.37" as="targetPoint" />
            <Array as="points">
              <mxPoint x="560" y="-864.37" />
            </Array>
          </mxGeometry>
        </mxCell>
        <mxCell id="OoetETpxCkzC8k2bZlOq-26" value="" style="endArrow=none;html=1;rounded=0;" edge="1" parent="1">
          <mxGeometry width="50" height="50" relative="1" as="geometry">
            <mxPoint x="640" y="-864.37" as="sourcePoint" />
            <mxPoint x="690" y="-864.37" as="targetPoint" />
            <Array as="points" />
          </mxGeometry>
        </mxCell>
        <mxCell id="OoetETpxCkzC8k2bZlOq-27" value="" style="endArrow=none;html=1;rounded=0;" edge="1" parent="1">
          <mxGeometry width="50" height="50" relative="1" as="geometry">
            <mxPoint x="740" y="-864.37" as="sourcePoint" />
            <mxPoint x="790" y="-864.37" as="targetPoint" />
            <Array as="points" />
          </mxGeometry>
        </mxCell>
        <mxCell id="OoetETpxCkzC8k2bZlOq-28" value="" style="endArrow=none;html=1;rounded=0;" edge="1" parent="1">
          <mxGeometry width="50" height="50" relative="1" as="geometry">
            <mxPoint x="830" y="-864.37" as="sourcePoint" />
            <mxPoint x="890" y="-864.37" as="targetPoint" />
          </mxGeometry>
        </mxCell>
        <mxCell id="OoetETpxCkzC8k2bZlOq-29" value="" style="edgeStyle=none;orthogonalLoop=1;jettySize=auto;html=1;rounded=0;" edge="1" parent="1">
          <mxGeometry width="100" relative="1" as="geometry">
            <mxPoint x="890" y="-863.75" as="sourcePoint" />
            <mxPoint x="890" y="-783.75" as="targetPoint" />
            <Array as="points" />
          </mxGeometry>
        </mxCell>
        <mxCell id="OoetETpxCkzC8k2bZlOq-30" value="" style="triangle;whiteSpace=wrap;html=1;rotation=-90;" vertex="1" parent="1">
          <mxGeometry x="505" y="-883.75" width="35" height="55" as="geometry" />
        </mxCell>
        <mxCell id="OoetETpxCkzC8k2bZlOq-31" value="" style="ellipse;whiteSpace=wrap;html=1;aspect=fixed;" vertex="1" parent="1">
          <mxGeometry x="495" y="-898.75" width="55" height="55" as="geometry" />
        </mxCell>
        <mxCell id="OoetETpxCkzC8k2bZlOq-32" value="" style="triangle;whiteSpace=wrap;html=1;rotation=-90;" vertex="1" parent="1">
          <mxGeometry x="700" y="-878.75" width="35" height="55" as="geometry" />
        </mxCell>
        <mxCell id="OoetETpxCkzC8k2bZlOq-33" value="" style="ellipse;whiteSpace=wrap;html=1;aspect=fixed;" vertex="1" parent="1">
          <mxGeometry x="690" y="-893.75" width="55" height="55" as="geometry" />
        </mxCell>
        <mxCell id="OoetETpxCkzC8k2bZlOq-34" value="" style="edgeStyle=none;orthogonalLoop=1;jettySize=auto;html=1;rounded=0;" edge="1" parent="1">
          <mxGeometry width="100" relative="1" as="geometry">
            <mxPoint x="890" y="-783.75" as="sourcePoint" />
            <mxPoint x="990" y="-783.75" as="targetPoint" />
            <Array as="points">
              <mxPoint x="940" y="-783.75" />
            </Array>
          </mxGeometry>
        </mxCell>
        <mxCell id="OoetETpxCkzC8k2bZlOq-35" value="Reactor" style="whiteSpace=wrap;html=1;aspect=fixed;" vertex="1" parent="1">
          <mxGeometry x="990" y="-823.75" width="80" height="80" as="geometry" />
        </mxCell>
        <mxCell id="OoetETpxCkzC8k2bZlOq-36" value="" style="endArrow=classic;html=1;rounded=0;" edge="1" parent="1">
          <mxGeometry width="50" height="50" relative="1" as="geometry">
            <mxPoint x="1070" y="-778.75" as="sourcePoint" />
            <mxPoint x="1150" y="-778.75" as="targetPoint" />
          </mxGeometry>
        </mxCell>
        <mxCell id="OoetETpxCkzC8k2bZlOq-37" value="" style="shape=mxgraph.pid.heat_exchangers.shell_and_tube_heat_exchanger_1;html=1;pointerEvents=1;align=center;verticalLabelPosition=bottom;verticalAlign=top;dashed=0;rotation=90;" vertex="1" parent="1">
          <mxGeometry x="1140" y="-793.75" width="60" height="40" as="geometry" />
        </mxCell>
        <mxCell id="OoetETpxCkzC8k2bZlOq-38" value="" style="shape=mxgraph.pid.heat_exchangers.condenser;html=1;pointerEvents=1;align=center;verticalLabelPosition=bottom;verticalAlign=top;dashed=0;" vertex="1" parent="1">
          <mxGeometry x="1240" y="-813.75" width="80" height="80" as="geometry" />
        </mxCell>
        <mxCell id="OoetETpxCkzC8k2bZlOq-39" value="" style="endArrow=classic;html=1;rounded=0;" edge="1" parent="1">
          <mxGeometry width="50" height="50" relative="1" as="geometry">
            <mxPoint x="1190" y="-784.37" as="sourcePoint" />
            <mxPoint x="1250" y="-783.75" as="targetPoint" />
          </mxGeometry>
        </mxCell>
        <mxCell id="OoetETpxCkzC8k2bZlOq-40" value="" style="endArrow=classic;html=1;rounded=0;" edge="1" parent="1">
          <mxGeometry width="50" height="50" relative="1" as="geometry">
            <mxPoint x="1279.38" y="-743.75" as="sourcePoint" />
            <mxPoint x="1279" y="-653.75" as="targetPoint" />
          </mxGeometry>
        </mxCell>
        <mxCell id="OoetETpxCkzC8k2bZlOq-41" value="" style="endArrow=none;html=1;rounded=0;" edge="1" parent="1">
          <mxGeometry width="50" height="50" relative="1" as="geometry">
            <mxPoint x="1279.38" y="-803.75" as="sourcePoint" />
            <mxPoint x="1279.38" y="-873.75" as="targetPoint" />
            <Array as="points">
              <mxPoint x="1279.38" y="-803.75" />
            </Array>
          </mxGeometry>
        </mxCell>
        <mxCell id="OoetETpxCkzC8k2bZlOq-42" value="" style="endArrow=none;html=1;rounded=0;" edge="1" parent="1">
          <mxGeometry width="50" height="50" relative="1" as="geometry">
            <mxPoint x="1280" y="-871.87" as="sourcePoint" />
            <mxPoint x="1190" y="-871.87" as="targetPoint" />
            <Array as="points">
              <mxPoint x="1280" y="-871.87" />
            </Array>
          </mxGeometry>
        </mxCell>
        <mxCell id="OoetETpxCkzC8k2bZlOq-43" value="" style="triangle;whiteSpace=wrap;html=1;rotation=-90;" vertex="1" parent="1">
          <mxGeometry x="1140" y="-883.75" width="35" height="55" as="geometry" />
        </mxCell>
        <mxCell id="OoetETpxCkzC8k2bZlOq-44" value="" style="ellipse;whiteSpace=wrap;html=1;aspect=fixed;" vertex="1" parent="1">
          <mxGeometry x="1130" y="-898.75" width="55" height="55" as="geometry" />
        </mxCell>
        <mxCell id="OoetETpxCkzC8k2bZlOq-45" value="" style="shape=mxgraph.pid.heat_exchangers.shell_and_tube_heat_exchanger_1;html=1;pointerEvents=1;align=center;verticalLabelPosition=bottom;verticalAlign=top;dashed=0;rotation=90;" vertex="1" parent="1">
          <mxGeometry x="1050" y="-891.25" width="60" height="40" as="geometry" />
        </mxCell>
        <mxCell id="OoetETpxCkzC8k2bZlOq-46" value="" style="endArrow=none;html=1;rounded=0;" edge="1" parent="1">
          <mxGeometry width="50" height="50" relative="1" as="geometry">
            <mxPoint x="1130" y="-871.87" as="sourcePoint" />
            <mxPoint x="1100" y="-871.75" as="targetPoint" />
            <Array as="points">
              <mxPoint x="1130" y="-871.87" />
            </Array>
          </mxGeometry>
        </mxCell>
        <mxCell id="OoetETpxCkzC8k2bZlOq-47" value="" style="verticalLabelPosition=bottom;align=center;html=1;verticalAlign=top;pointerEvents=1;dashed=0;shape=mxgraph.pid2valves.valve;valveType=gate;actuator=diaph;rotation=90;" vertex="1" parent="1">
          <mxGeometry x="1071.25" y="-970" width="37.5" height="50" as="geometry" />
        </mxCell>
        <mxCell id="OoetETpxCkzC8k2bZlOq-48" value="" style="endArrow=none;html=1;rounded=0;" edge="1" parent="1">
          <mxGeometry width="50" height="50" relative="1" as="geometry">
            <mxPoint x="1060" y="-869.37" as="sourcePoint" />
            <mxPoint x="1030" y="-869.37" as="targetPoint" />
            <Array as="points">
              <mxPoint x="1060" y="-869.37" />
            </Array>
          </mxGeometry>
        </mxCell>
        <mxCell id="OoetETpxCkzC8k2bZlOq-49" value="" style="endArrow=none;html=1;rounded=0;" edge="1" parent="1">
          <mxGeometry width="50" height="50" relative="1" as="geometry">
            <mxPoint x="990" y="-869.25" as="sourcePoint" />
            <mxPoint x="960" y="-869.25" as="targetPoint" />
            <Array as="points">
              <mxPoint x="1030" y="-869.25" />
              <mxPoint x="990" y="-869.25" />
            </Array>
          </mxGeometry>
        </mxCell>
        <mxCell id="OoetETpxCkzC8k2bZlOq-50" value="" style="edgeStyle=none;orthogonalLoop=1;jettySize=auto;html=1;rounded=0;" edge="1" parent="1">
          <mxGeometry width="100" relative="1" as="geometry">
            <mxPoint x="960" y="-868.75" as="sourcePoint" />
            <mxPoint x="960" y="-788.75" as="targetPoint" />
            <Array as="points">
              <mxPoint x="960" y="-868.75" />
            </Array>
          </mxGeometry>
        </mxCell>
        <mxCell id="OoetETpxCkzC8k2bZlOq-51" value="" style="shape=mxgraph.pid.vessels.tank_(dished_roof);html=1;pointerEvents=1;align=center;verticalLabelPosition=bottom;verticalAlign=top;dashed=0;" vertex="1" parent="1">
          <mxGeometry x="1230" y="-653.75" width="100" height="95" as="geometry" />
        </mxCell>
        <mxCell id="OoetETpxCkzC8k2bZlOq-52" value="NH3" style="text;html=1;align=center;verticalAlign=middle;resizable=0;points=[];autosize=1;strokeColor=none;fillColor=none;" vertex="1" parent="1">
          <mxGeometry x="1255" y="-603.75" width="50" height="30" as="geometry" />
        </mxCell>
        <mxCell id="OoetETpxCkzC8k2bZlOq-53" value="Condenser" style="text;html=1;align=center;verticalAlign=middle;resizable=0;points=[];autosize=1;strokeColor=none;fillColor=none;" vertex="1" parent="1">
          <mxGeometry x="1310" y="-783.75" width="80" height="30" as="geometry" />
        </mxCell>
        <mxCell id="OoetETpxCkzC8k2bZlOq-54" value="" style="endArrow=none;html=1;rounded=0;" edge="1" parent="1">
          <mxGeometry width="50" height="50" relative="1" as="geometry">
            <mxPoint x="1099.5" y="-440" as="sourcePoint" />
            <mxPoint x="1099.5" y="-490" as="targetPoint" />
          </mxGeometry>
        </mxCell>
        <mxCell id="OoetETpxCkzC8k2bZlOq-55" value="" style="endArrow=classic;html=1;rounded=0;" edge="1" parent="1">
          <mxGeometry width="50" height="50" relative="1" as="geometry">
            <mxPoint x="1080" y="-843.75" as="sourcePoint" />
            <mxPoint x="1080" y="-803.75" as="targetPoint" />
            <Array as="points">
              <mxPoint x="1080" y="-843.75" />
            </Array>
          </mxGeometry>
        </mxCell>
        <mxCell id="OoetETpxCkzC8k2bZlOq-56" value="" style="endArrow=none;html=1;rounded=0;" edge="1" parent="1">
          <mxGeometry width="50" height="50" relative="1" as="geometry">
            <mxPoint x="1079.5" y="-901.25" as="sourcePoint" />
            <mxPoint x="1080" y="-923.75" as="targetPoint" />
          </mxGeometry>
        </mxCell>
        <mxCell id="OoetETpxCkzC8k2bZlOq-57" value="" style="endArrow=classic;html=1;rounded=0;" edge="1" parent="1">
          <mxGeometry width="50" height="50" relative="1" as="geometry">
            <mxPoint x="809.5" y="-673.75" as="sourcePoint" />
            <mxPoint x="809.5" y="-623.75" as="targetPoint" />
          </mxGeometry>
        </mxCell>
        <mxCell id="OoetETpxCkzC8k2bZlOq-58" value="" style="endArrow=classic;html=1;rounded=0;" edge="1" parent="1">
          <mxGeometry width="50" height="50" relative="1" as="geometry">
            <mxPoint x="1169.5" y="-743.75" as="sourcePoint" />
            <mxPoint x="1169.5" y="-693.75" as="targetPoint" />
          </mxGeometry>
        </mxCell>
        <mxCell id="OoetETpxCkzC8k2bZlOq-59" value="" style="endArrow=none;html=1;rounded=0;" edge="1" parent="1">
          <mxGeometry width="50" height="50" relative="1" as="geometry">
            <mxPoint x="1169.5" y="-798.75" as="sourcePoint" />
            <mxPoint x="1169.5" y="-828.75" as="targetPoint" />
          </mxGeometry>
        </mxCell>
        <mxCell id="OoetETpxCkzC8k2bZlOq-60" value="" style="endArrow=none;html=1;rounded=0;" edge="1" parent="1">
          <mxGeometry width="50" height="50" relative="1" as="geometry">
            <mxPoint x="809.5" y="-733.75" as="sourcePoint" />
            <mxPoint x="809.5" y="-763.75" as="targetPoint" />
          </mxGeometry>
        </mxCell>
        <mxCell id="OoetETpxCkzC8k2bZlOq-61" value="" style="shape=mxgraph.pid.heat_exchangers.shell_and_tube_heat_exchanger_1;html=1;pointerEvents=1;align=center;verticalLabelPosition=bottom;verticalAlign=top;dashed=0;rotation=90;" vertex="1" parent="1">
          <mxGeometry x="590" y="-726.25" width="60" height="40" as="geometry" />
        </mxCell>
        <mxCell id="OoetETpxCkzC8k2bZlOq-62" value="" style="endArrow=classic;html=1;rounded=0;" edge="1" parent="1">
          <mxGeometry width="50" height="50" relative="1" as="geometry">
            <mxPoint x="619.5" y="-676.25" as="sourcePoint" />
            <mxPoint x="619.5" y="-626.25" as="targetPoint" />
          </mxGeometry>
        </mxCell>
        <mxCell id="OoetETpxCkzC8k2bZlOq-63" value="" style="endArrow=none;html=1;rounded=0;" edge="1" parent="1">
          <mxGeometry width="50" height="50" relative="1" as="geometry">
            <mxPoint x="619.5" y="-736.25" as="sourcePoint" />
            <mxPoint x="619.5" y="-766.25" as="targetPoint" />
          </mxGeometry>
        </mxCell>
        <mxCell id="OoetETpxCkzC8k2bZlOq-64" value="" style="shape=mxgraph.pid.heat_exchangers.shell_and_tube_heat_exchanger_1;html=1;pointerEvents=1;align=center;verticalLabelPosition=bottom;verticalAlign=top;dashed=0;rotation=90;" vertex="1" parent="1">
          <mxGeometry x="590" y="-883.75" width="60" height="40" as="geometry" />
        </mxCell>
        <mxCell id="OoetETpxCkzC8k2bZlOq-65" value="" style="endArrow=classic;html=1;rounded=0;" edge="1" parent="1">
          <mxGeometry width="50" height="50" relative="1" as="geometry">
            <mxPoint x="619.5" y="-833.75" as="sourcePoint" />
            <mxPoint x="619.5" y="-783.75" as="targetPoint" />
          </mxGeometry>
        </mxCell>
        <mxCell id="OoetETpxCkzC8k2bZlOq-66" value="" style="endArrow=none;html=1;rounded=0;" edge="1" parent="1">
          <mxGeometry width="50" height="50" relative="1" as="geometry">
            <mxPoint x="619.5" y="-893.75" as="sourcePoint" />
            <mxPoint x="619.5" y="-923.75" as="targetPoint" />
          </mxGeometry>
        </mxCell>
        <mxCell id="OoetETpxCkzC8k2bZlOq-67" value="" style="shape=mxgraph.pid.heat_exchangers.shell_and_tube_heat_exchanger_1;html=1;pointerEvents=1;align=center;verticalLabelPosition=bottom;verticalAlign=top;dashed=0;rotation=90;" vertex="1" parent="1">
          <mxGeometry x="780" y="-888.75" width="60" height="40" as="geometry" />
        </mxCell>
        <mxCell id="OoetETpxCkzC8k2bZlOq-68" value="" style="endArrow=classic;html=1;rounded=0;" edge="1" parent="1">
          <mxGeometry width="50" height="50" relative="1" as="geometry">
            <mxPoint x="809.5" y="-838.75" as="sourcePoint" />
            <mxPoint x="809.5" y="-788.75" as="targetPoint" />
          </mxGeometry>
        </mxCell>
        <mxCell id="OoetETpxCkzC8k2bZlOq-69" value="" style="endArrow=none;html=1;rounded=0;" edge="1" parent="1">
          <mxGeometry width="50" height="50" relative="1" as="geometry">
            <mxPoint x="809.5" y="-898.75" as="sourcePoint" />
            <mxPoint x="809.5" y="-928.75" as="targetPoint" />
          </mxGeometry>
        </mxCell>
      </root>
    </mxGraphModel>
  </diagram>
</mxfile>
